<svg viewBox="0 0 50 50" fill="none" xmlns="http://www.w3.org/2000/svg">
<g id="ArrowUp">
<path id="Vector" d="M42.3828 26.6357L26.1767 7.95893C26.0303 7.78993 25.8491 7.65439 25.6457 7.5615C25.4422 7.46861 25.2212 7.42053 24.9975 7.42053C24.7739 7.42053 24.5529 7.46861 24.3494 7.5615C24.1459 7.65439 23.9648 7.78993 23.8183 7.95893L7.61718 26.6357C7.56822 26.692 7.53648 26.7612 7.52573 26.835C7.51498 26.9088 7.52568 26.9842 7.55655 27.0521C7.58742 27.12 7.63717 27.1776 7.69986 27.2181C7.76255 27.2585 7.83554 27.2801 7.91015 27.2802H11.8652C12.0898 27.2802 12.3047 27.1826 12.456 27.0117L23.1445 14.6923V42.1874C23.1445 42.4023 23.3203 42.5781 23.5351 42.5781H26.4648C26.6797 42.5781 26.8555 42.4023 26.8555 42.1874V14.6923L37.5439 27.0117C37.6904 27.1826 37.9053 27.2802 38.1348 27.2802H42.0898C42.4219 27.2802 42.6025 26.8896 42.3828 26.6357Z" fill="black"/>
</g>
</svg>
