<svg width="81" height="80" viewBox="0 0 81 80" fill="none" xmlns="http://www.w3.org/2000/svg">
<g id="rocket-3431 1">
<g clip-path="url(#clip0_87_504)">
<g id="Group">
<path id="Vector" d="M79.6944 5.38343C79.6891 5.14897 79.6804 4.91451 79.6716 4.67918C79.6619 4.41662 79.654 4.15494 79.64 3.8915C79.6127 3.36287 79.5785 2.8316 79.5337 2.29858C79.4626 1.44416 78.7838 0.766251 77.9294 0.694245C77.3964 0.64946 76.8669 0.616092 76.3391 0.587991C76.0713 0.573942 75.8061 0.566038 75.5409 0.556379C75.3108 0.548476 75.0799 0.538817 74.8507 0.534426C74.4669 0.525645 74.0858 0.52301 73.7056 0.52301C73.6424 0.52301 73.5783 0.52301 73.515 0.523888C65.9386 0.56077 58.9838 2.42064 51.9623 6.25453C51.8385 6.32303 51.7147 6.38713 51.5909 6.45474C51.547 6.47933 51.504 6.50041 51.4601 6.52499C51.4504 6.53026 51.4425 6.53904 51.4328 6.54431C45.6758 9.75298 39.9285 14.2815 33.9801 20.2299C33.3039 20.906 32.6427 21.591 31.9885 22.2794L20.4289 23.1584C20.0908 23.1839 19.7676 23.3068 19.4981 23.5114L1.36742 37.3094C0.790489 37.7485 0.54198 38.4966 0.743071 39.193C0.943283 39.8894 1.55095 40.3908 2.27276 40.4566L19.2847 41.9925L24.6711 47.3789C22.7621 47.8153 20.817 48.8849 19.1512 50.5498C18.1537 51.5482 17.3528 52.6669 16.7662 53.8893C15.9996 55.513 14.3162 59.6937 12.5337 64.1203L11.6634 66.2796C11.4 66.933 11.5519 67.6803 12.0507 68.1781C12.3861 68.5145 12.8357 68.6927 13.2932 68.6927C13.5136 68.6927 13.7367 68.6506 13.9501 68.5645L16.1867 67.6627C20.5773 65.8941 24.7247 64.2231 26.3518 63.4565C27.5636 62.8734 28.6833 62.0725 29.6799 61.0759C31.3449 59.4109 32.4135 57.4659 32.85 55.5569L38.0766 60.7835L39.6124 77.7945C39.6774 78.5163 40.1797 79.124 40.876 79.3242C41.0367 79.3707 41.2001 79.3927 41.3616 79.3927C41.9008 79.3927 42.4215 79.1442 42.7596 78.6998L56.5558 60.5701C56.7604 60.3005 56.8834 59.9773 56.9088 59.6393L57.7615 48.4212C58.514 47.7091 59.2596 46.9855 59.9981 46.2479C65.9509 40.295 70.482 34.5451 73.6916 28.7846C73.6951 28.7784 73.7003 28.7732 73.7038 28.767C73.7197 28.7389 73.7328 28.7117 73.7486 28.6836C73.8953 28.4193 74.0349 28.155 74.1754 27.8898C77.8697 20.9991 79.6646 14.1603 79.7032 6.72784C79.7041 6.65496 79.7041 6.58295 79.7041 6.51007C79.7058 6.13686 79.7032 5.76103 79.6944 5.38343ZM57.2408 33.3631C55.856 34.7479 54.0136 35.5119 52.0537 35.5119C50.0946 35.5119 48.2523 34.7488 46.8666 33.3631C44.0065 30.5022 44.0065 25.849 46.8666 22.9881C49.7284 20.128 54.3825 20.1298 57.2408 22.9881C58.6264 24.3729 59.3904 26.2152 59.3904 28.1752C59.3904 30.1351 58.6273 31.9774 57.2408 33.3631Z" fill="#181320"/>
</g>
</g>
</g>
<defs>
<clipPath id="clip0_87_504">
<rect x="0.238525" width="80" height="80" rx="5" fill="white"/>
</clipPath>
</defs>
</svg>
