<svg width="197" height="25" viewBox="0 0 197 25" xmlns="http://www.w3.org/2000/svg">
<g id="SpaceXLogo">
<g id="Group">
<path id="Vector" d="M18.2777 15.4159H5.14196V12.1566H22.0802C21.6357 10.7739 20.2036 9.48999 17.6851 9.48999H5.38887C2.57407 9.48999 0.944443 10.527 0.944443 12.7986V15.2184C0.944443 17.1937 2.62345 18.3295 5.09258 18.3295H18.3765V21.7863H0.5C0.944443 23.6628 2.37654 24.6504 4.94443 24.6504H18.3271C21.1419 24.6504 22.5246 23.564 22.5246 21.243V18.8233C22.5246 16.6998 20.895 15.564 18.2777 15.4159Z" fill="#F3F2FB"/>
</g>
<g id="Group_2">
<path id="Vector_2" d="M45.0925 9.53955H28.895V24.7H33.4876V18.8729H45.4381C48.7468 18.8729 50.5739 17.7371 50.5739 15.0704V13.3914C50.5245 10.9223 48.4505 9.53955 45.0925 9.53955ZM46.5739 14.379C46.5739 15.4655 46.3764 16.058 44.5986 16.058H33.4876L33.5369 12.1074H44.4011C46.3764 12.1074 46.6233 12.7 46.6233 13.7371V14.379H46.5739Z" fill="#F3F2FB"/>
</g>
<g id="Group_3">
<path id="Vector_3" d="M63.9072 8.89746L61.1418 12.3049L65.8331 18.774H56.0554L53.6356 21.3419H67.7591L70.1788 24.6999H75.6109L63.9072 8.89746Z" fill="#F3F2FB"/>
</g>
<g id="Group_4">
<path id="Vector_4" d="M84.401 12.1566H101.586C101.142 10.3789 99.4133 9.48999 96.9442 9.48999H84.1047C81.8825 9.48999 79.759 10.3789 79.759 12.7986V21.2924C79.759 23.7122 81.8825 24.6011 84.1047 24.6011H97.0923C100.055 24.6011 101.092 23.7616 101.586 21.7369H84.401V12.1566Z" fill="#F3F2FB"/>
</g>
<g id="Group_5">
<path id="Vector_5" d="M112.642 21.8358V17.1939H121.877V14.626H108V24.7H128.494V21.8358H112.642Z" fill="#F3F2FB"/>
<path id="Vector_6" d="M128.691 9.53955H108V12.2062H128.691V9.53955Z" fill="#F3F2FB"/>
</g>
<g id="Group_6">
<path id="Vector_7" d="M141.784 9.53955H134.574L143.067 15.7618C144.302 14.9223 145.734 14.0334 147.018 13.2926L141.784 9.53955Z" fill="#F3F2FB"/>
<path id="Vector_8" d="M152.253 17.2927C151.018 18.1322 149.784 19.0705 148.598 19.9594L155.018 24.6507H162.277L152.253 17.2927Z" fill="#F3F2FB"/>
</g>
<g id="Group_7">
<path id="Vector_9" d="M196.796 0.699951C157.29 2.97155 139.018 19.8604 134.919 23.8604L134.08 24.6505H141.388C161.141 4.84809 189.536 1.34192 196.796 0.699951Z" fill="#F3F2FB"/>
</g>
</g>
</svg>
